<?xml version="1.0" encoding="UTF-8" standalone="no"?>
<!DOCTYPE svg PUBLIC "-//W3C//DTD SVG 1.1//EN" "http://www.w3.org/Graphics/SVG/1.1/DTD/svg11.dtd">
<svg width="100%" height="100%" viewBox="0 0 5000 5000" version="1.1" xmlns="http://www.w3.org/2000/svg" xmlns:xlink="http://www.w3.org/1999/xlink" xml:space="preserve" xmlns:serif="http://www.serif.com/" style="fill-rule:evenodd;clip-rule:evenodd;stroke-linecap:round;stroke-linejoin:round;stroke-miterlimit:1.5;">
    <path d="M2346,1843C2235.17,1805 2013.5,1729 1891,1771C1768.5,1813 1604.96,2006.73 1611,2095C1629.83,2370.17 1747.18,2328.02 1766,2458C1779.92,2554.1 1438.82,2685.89 1736,2880C2141.32,3144.74 2233.5,2920.17 2638,3351C2762.35,3483.44 2756.83,3703.17 2696,3855C2635.17,4006.83 2399,4217.17 2273,4262C2159.8,4302.28 2035.17,4279 1940,4124C1882.5,4030.35 1896.85,3875.93 1834,3770C1768.83,3660.17 1678.16,3516.76 1549,3465C1415.5,3411.5 1197.83,3399.57 1033,3449C856.833,3501.83 610.667,3661.5 492,3782C392.401,3883.14 344.8,4075.71 321,4172" style="fill:none;stroke:black;stroke-width:1px;"/>
</svg>
